<?xml version="1.0" encoding="utf-8"?>
<!-- Generator: Adobe Illustrator 18.0.0, SVG Export Plug-In . SVG Version: 6.00 Build 0)  -->
<!DOCTYPE svg PUBLIC "-//W3C//DTD SVG 1.1//EN" "http://www.w3.org/Graphics/SVG/1.1/DTD/svg11.dtd">
<svg version="1.1" id="ivyToolWindow" xmlns="http://www.w3.org/2000/svg" xmlns:xlink="http://www.w3.org/1999/xlink"
	 width="16" height="16" xml:space="preserve">
<g>
	<g transform="scale(0.1)">
		<path fill="#009444" d="M715.1,162.1l-6.9,0.7c7.6-12.7,6.9-33.3,6.9-33.3l-11.4,3.3v-6c-6.1,0-16,8.7-16,8.7
			c1.5-12.7-9.2-22-9.2-22l-6.1,4.7c-2.3-10-10.1-17.4-10.1-17.4s-7.8,7.4-10.1,17.4l-6.1-4.7c0,0-10.7,9.3-9.2,22
			c0,0-9.9-8.7-16-8.7v6l-11.4-3.3c0,0-0.8,20.7,6.9,33.3l-6.9-0.7c0,0,3.8,18,12.2,25.3l-7.6,2c0,0,7,12.7,21.8,27.3
			c14.8,14.7,26.4,34,26.4,34s11.6-19.3,26.4-34c14.8-14.7,21.8-27.3,21.8-27.3l-7.6-2C711.2,180.1,715.1,162.1,715.1,162.1z" transform="translate(-582,-96)" />
		<path fill="#00883E" d="M662.2,250.8v-150c0,0,7.8,7.4,10.1,17.4l6.1-4.7c0,0,10.7,9.3,9.2,22c0,0,9.9-8.7,16-8.7v6l11.4-3.3
			c0,0,0.8,20.7-6.9,33.3l6.9-0.7c0,0-3.8,18-12.2,25.3l7.6,2c0,0-7,12.7-21.8,27.3S662.2,250.8,662.2,250.8z" transform="translate(-582,-96)" />
	</g>
</g>
</svg>
